<?xml version="1.0" encoding="UTF-8" standalone="no"?>
<!DOCTYPE svg PUBLIC "-//W3C//DTD SVG 1.1//EN"
 "http://www.w3.org/Graphics/SVG/1.1/DTD/svg11.dtd">
<!-- Generated by graphviz version 2.38.0 (20140413.2041)
 -->
<!-- Title: models_diagram Pages: 1 -->
<svg width="443pt" height="607pt"
 viewBox="0.00 0.00 443.01 607.00" xmlns="http://www.w3.org/2000/svg" xmlns:xlink="http://www.w3.org/1999/xlink">
<g id="graph0" class="graph" transform="scale(1 1) rotate(0) translate(4 603)">
<title>models_diagram</title>
<polygon fill="white" stroke="none" points="-4,4 -4,-603 439.011,-603 439.011,4 -4,4"/>
<!-- Book -->
<g id="node1" class="node"><title>Book</title>
<path fill="none" stroke="black" d="M161.555,-151.5C161.555,-151.5 295.456,-151.5 295.456,-151.5 301.456,-151.5 307.456,-157.5 307.456,-163.5 307.456,-163.5 307.456,-337.5 307.456,-337.5 307.456,-343.5 301.456,-349.5 295.456,-349.5 295.456,-349.5 161.555,-349.5 161.555,-349.5 155.555,-349.5 149.555,-343.5 149.555,-337.5 149.555,-337.5 149.555,-163.5 149.555,-163.5 149.555,-157.5 155.555,-151.5 161.555,-151.5"/>
<text text-anchor="middle" x="228.505" y="-334.3" font-family="Times,serif" font-size="14.00">Book</text>
<polyline fill="none" stroke="black" points="149.555,-327.5 307.456,-327.5 "/>
<text text-anchor="start" x="157.555" y="-312.3" font-family="Times,serif" font-size="14.00">id :integer</text>
<text text-anchor="start" x="157.555" y="-298.3" font-family="Times,serif" font-size="14.00">name :string</text>
<text text-anchor="start" x="157.555" y="-284.3" font-family="Times,serif" font-size="14.00">description :text</text>
<text text-anchor="start" x="157.555" y="-270.3" font-family="Times,serif" font-size="14.00">star_rating :float</text>
<text text-anchor="start" x="157.555" y="-256.3" font-family="Times,serif" font-size="14.00">user_id :integer</text>
<text text-anchor="start" x="157.555" y="-242.3" font-family="Times,serif" font-size="14.00">order_id :integer</text>
<text text-anchor="start" x="157.555" y="-228.3" font-family="Times,serif" font-size="14.00">price :float</text>
<text text-anchor="start" x="157.555" y="-214.3" font-family="Times,serif" font-size="14.00">number_of_sales :integer</text>
<text text-anchor="start" x="157.555" y="-200.3" font-family="Times,serif" font-size="14.00">cover_picture :text</text>
<text text-anchor="start" x="157.555" y="-186.3" font-family="Times,serif" font-size="14.00">content :text</text>
<text text-anchor="start" x="157.555" y="-172.3" font-family="Times,serif" font-size="14.00">created_at :datetime</text>
<text text-anchor="start" x="157.555" y="-158.3" font-family="Times,serif" font-size="14.00">updated_at :datetime</text>
</g>
<!-- Comment -->
<g id="node2" class="node"><title>Comment</title>
<path fill="none" stroke="black" d="M12,-0.5C12,-0.5 121.011,-0.5 121.011,-0.5 127.011,-0.5 133.011,-6.5 133.011,-12.5 133.011,-12.5 133.011,-102.5 133.011,-102.5 133.011,-108.5 127.011,-114.5 121.011,-114.5 121.011,-114.5 12,-114.5 12,-114.5 6,-114.5 0,-108.5 0,-102.5 0,-102.5 0,-12.5 0,-12.5 0,-6.5 6,-0.5 12,-0.5"/>
<text text-anchor="middle" x="66.5054" y="-99.3" font-family="Times,serif" font-size="14.00">Comment</text>
<polyline fill="none" stroke="black" points="0,-92.5 133.011,-92.5 "/>
<text text-anchor="start" x="8" y="-77.3" font-family="Times,serif" font-size="14.00">id :integer</text>
<text text-anchor="start" x="8" y="-63.3" font-family="Times,serif" font-size="14.00">content :text</text>
<text text-anchor="start" x="8" y="-49.3" font-family="Times,serif" font-size="14.00">user_id :integer</text>
<text text-anchor="start" x="8" y="-35.3" font-family="Times,serif" font-size="14.00">book_id :integer</text>
<text text-anchor="start" x="8" y="-21.3" font-family="Times,serif" font-size="14.00">created_at :datetime</text>
<text text-anchor="start" x="8" y="-7.3" font-family="Times,serif" font-size="14.00">updated_at :datetime</text>
</g>
<!-- Book&#45;&gt;Comment -->
<g id="edge1" class="edge"><title>Book&#45;&gt;Comment</title>
<path fill="none" stroke="#655234" d="M144.038,-149.912C136.108,-140.562 128.222,-131.265 120.685,-122.379"/>
<ellipse fill="none" stroke="#655234" cx="146.816" cy="-153.188" rx="4.00002" ry="4.00002"/>
<polygon fill="#655234" stroke="#655234" points="120.628,-122.311 117.591,-111.774 117.394,-118.498 114.159,-114.685 114.159,-114.685 114.159,-114.685 117.394,-118.498 110.728,-117.595 120.628,-122.311 120.628,-122.311"/>
</g>
<!-- Genre -->
<g id="node3" class="node"><title>Genre</title>
<path fill="none" stroke="black" d="M163,-14.5C163,-14.5 272.011,-14.5 272.011,-14.5 278.011,-14.5 284.011,-20.5 284.011,-26.5 284.011,-26.5 284.011,-88.5 284.011,-88.5 284.011,-94.5 278.011,-100.5 272.011,-100.5 272.011,-100.5 163,-100.5 163,-100.5 157,-100.5 151,-94.5 151,-88.5 151,-88.5 151,-26.5 151,-26.5 151,-20.5 157,-14.5 163,-14.5"/>
<text text-anchor="middle" x="217.505" y="-85.3" font-family="Times,serif" font-size="14.00">Genre</text>
<polyline fill="none" stroke="black" points="151,-78.5 284.011,-78.5 "/>
<text text-anchor="start" x="159" y="-63.3" font-family="Times,serif" font-size="14.00">id :integer</text>
<text text-anchor="start" x="159" y="-49.3" font-family="Times,serif" font-size="14.00">name :string</text>
<text text-anchor="start" x="159" y="-35.3" font-family="Times,serif" font-size="14.00">created_at :datetime</text>
<text text-anchor="start" x="159" y="-21.3" font-family="Times,serif" font-size="14.00">updated_at :datetime</text>
</g>
<!-- Book&#45;&gt;Genre -->
<g id="edge3" class="edge"><title>Book&#45;&gt;Genre</title>
<path fill="none" stroke="#0f014e" d="M222.28,-141.413C221.668,-130.781 221.068,-120.361 220.511,-110.692"/>
<polygon fill="#0f014e" stroke="#0f014e" points="222.285,-141.499 218.368,-151.741 222.573,-146.49 222.86,-151.482 222.86,-151.482 222.86,-151.482 222.573,-146.49 227.353,-151.223 222.285,-141.499 222.285,-141.499"/>
<polygon fill="#0f014e" stroke="#0f014e" points="220.5,-110.504 224.418,-100.262 220.213,-105.513 219.925,-100.521 219.925,-100.521 219.925,-100.521 220.213,-105.513 215.433,-100.78 220.5,-110.504 220.5,-110.504"/>
</g>
<!-- Order -->
<g id="node4" class="node"><title>Order</title>
<path fill="none" stroke="black" d="M314,-14.5C314,-14.5 423.011,-14.5 423.011,-14.5 429.011,-14.5 435.011,-20.5 435.011,-26.5 435.011,-26.5 435.011,-88.5 435.011,-88.5 435.011,-94.5 429.011,-100.5 423.011,-100.5 423.011,-100.5 314,-100.5 314,-100.5 308,-100.5 302,-94.5 302,-88.5 302,-88.5 302,-26.5 302,-26.5 302,-20.5 308,-14.5 314,-14.5"/>
<text text-anchor="middle" x="368.505" y="-85.3" font-family="Times,serif" font-size="14.00">Order</text>
<polyline fill="none" stroke="black" points="302,-78.5 435.011,-78.5 "/>
<text text-anchor="start" x="310" y="-63.3" font-family="Times,serif" font-size="14.00">id :integer</text>
<text text-anchor="start" x="310" y="-49.3" font-family="Times,serif" font-size="14.00">user_id :integer</text>
<text text-anchor="start" x="310" y="-35.3" font-family="Times,serif" font-size="14.00">created_at :datetime</text>
<text text-anchor="start" x="310" y="-21.3" font-family="Times,serif" font-size="14.00">updated_at :datetime</text>
</g>
<!-- Book&#45;&gt;Order -->
<g id="edge2" class="edge"><title>Book&#45;&gt;Order</title>
<path fill="none" stroke="#259d41" d="M306.506,-143.085C315.218,-131.199 323.763,-119.541 331.591,-108.862"/>
<polygon fill="#259d41" stroke="#259d41" points="306.263,-143.417 296.721,-148.822 303.307,-147.449 300.351,-151.482 300.351,-151.482 300.351,-151.482 303.307,-147.449 303.98,-154.143 306.263,-143.417 306.263,-143.417"/>
<polygon fill="#259d41" stroke="#259d41" points="331.793,-108.586 341.334,-103.181 334.749,-104.554 337.705,-100.521 337.705,-100.521 337.705,-100.521 334.749,-104.554 334.075,-97.8607 331.793,-108.586 331.793,-108.586"/>
</g>
<!-- User -->
<g id="node5" class="node"><title>User</title>
<path fill="none" stroke="black" d="M191.228,-386.5C191.228,-386.5 371.783,-386.5 371.783,-386.5 377.783,-386.5 383.783,-392.5 383.783,-398.5 383.783,-398.5 383.783,-586.5 383.783,-586.5 383.783,-592.5 377.783,-598.5 371.783,-598.5 371.783,-598.5 191.228,-598.5 191.228,-598.5 185.228,-598.5 179.228,-592.5 179.228,-586.5 179.228,-586.5 179.228,-398.5 179.228,-398.5 179.228,-392.5 185.228,-386.5 191.228,-386.5"/>
<text text-anchor="middle" x="281.505" y="-583.3" font-family="Times,serif" font-size="14.00">User</text>
<polyline fill="none" stroke="black" points="179.228,-576.5 383.783,-576.5 "/>
<text text-anchor="start" x="187.228" y="-561.3" font-family="Times,serif" font-size="14.00">id :integer</text>
<text text-anchor="start" x="187.228" y="-547.3" font-family="Times,serif" font-size="14.00">email :string</text>
<text text-anchor="start" x="187.228" y="-533.3" font-family="Times,serif" font-size="14.00">encrypted_password :string</text>
<text text-anchor="start" x="187.228" y="-519.3" font-family="Times,serif" font-size="14.00">reset_password_token :string</text>
<text text-anchor="start" x="187.228" y="-505.3" font-family="Times,serif" font-size="14.00">reset_password_sent_at :datetime</text>
<text text-anchor="start" x="187.228" y="-491.3" font-family="Times,serif" font-size="14.00">remember_created_at :datetime</text>
<text text-anchor="start" x="187.228" y="-477.3" font-family="Times,serif" font-size="14.00">sign_in_count :integer</text>
<text text-anchor="start" x="187.228" y="-463.3" font-family="Times,serif" font-size="14.00">current_sign_in_at :datetime</text>
<text text-anchor="start" x="187.228" y="-449.3" font-family="Times,serif" font-size="14.00">last_sign_in_at :datetime</text>
<text text-anchor="start" x="187.228" y="-435.3" font-family="Times,serif" font-size="14.00">current_sign_in_ip :string</text>
<text text-anchor="start" x="187.228" y="-421.3" font-family="Times,serif" font-size="14.00">last_sign_in_ip :string</text>
<text text-anchor="start" x="187.228" y="-407.3" font-family="Times,serif" font-size="14.00">created_at :datetime</text>
<text text-anchor="start" x="187.228" y="-393.3" font-family="Times,serif" font-size="14.00">updated_at :datetime</text>
</g>
<!-- User&#45;&gt;Book -->
<g id="edge4" class="edge"><title>User&#45;&gt;Book</title>
<path fill="none" stroke="#a98a1e" d="M256.501,-378.274C255.158,-372.19 253.809,-366.083 252.469,-360.016"/>
<ellipse fill="none" stroke="#a98a1e" cx="257.396" cy="-382.327" rx="4.00001" ry="4.00001"/>
<polygon fill="#a98a1e" stroke="#a98a1e" points="252.381,-359.618 254.619,-348.883 251.303,-354.735 250.225,-349.853 250.225,-349.853 250.225,-349.853 251.303,-354.735 245.831,-350.823 252.381,-359.618 252.381,-359.618"/>
</g>
<!-- User&#45;&gt;Order -->
<g id="edge5" class="edge"><title>User&#45;&gt;Order</title>
<path fill="none" stroke="#ca3780" d="M310.228,-378.205C312.43,-368.682 314.552,-359.186 316.505,-350 334.206,-266.753 350.761,-169.262 360.248,-110.769"/>
<ellipse fill="none" stroke="#ca3780" cx="309.271" cy="-382.309" rx="4.00001" ry="4.00001"/>
<polygon fill="#ca3780" stroke="#ca3780" points="360.286,-110.539 366.322,-101.384 361.083,-105.602 361.88,-100.666 361.88,-100.666 361.88,-100.666 361.083,-105.602 357.437,-99.949 360.286,-110.539 360.286,-110.539"/>
</g>
</g>
</svg>
