<?xml version="1.0" encoding="UTF-8" standalone="no"?>
<!DOCTYPE svg PUBLIC "-//W3C//DTD SVG 1.1//EN"
 "http://www.w3.org/Graphics/SVG/1.1/DTD/svg11.dtd">
<!-- Generated by graphviz version 2.38.0 (20140413.2041)
 -->
<!-- Title: models_diagram Pages: 1 -->
<svg width="443pt" height="649pt"
 viewBox="0.00 0.00 443.01 649.00" xmlns="http://www.w3.org/2000/svg" xmlns:xlink="http://www.w3.org/1999/xlink">
<g id="graph0" class="graph" transform="scale(1 1) rotate(0) translate(4 645)">
<title>models_diagram</title>
<polygon fill="white" stroke="none" points="-4,4 -4,-645 439.011,-645 439.011,4 -4,4"/>
<!-- Book -->
<g id="node1" class="node"><title>Book</title>
<path fill="none" stroke="black" d="M150.555,-151.5C150.555,-151.5 284.456,-151.5 284.456,-151.5 290.456,-151.5 296.456,-157.5 296.456,-163.5 296.456,-163.5 296.456,-337.5 296.456,-337.5 296.456,-343.5 290.456,-349.5 284.456,-349.5 284.456,-349.5 150.555,-349.5 150.555,-349.5 144.555,-349.5 138.555,-343.5 138.555,-337.5 138.555,-337.5 138.555,-163.5 138.555,-163.5 138.555,-157.5 144.555,-151.5 150.555,-151.5"/>
<text text-anchor="middle" x="217.505" y="-334.3" font-family="Times,serif" font-size="14.00">Book</text>
<polyline fill="none" stroke="black" points="138.555,-327.5 296.456,-327.5 "/>
<text text-anchor="start" x="146.555" y="-312.3" font-family="Times,serif" font-size="14.00">id :integer</text>
<text text-anchor="start" x="146.555" y="-298.3" font-family="Times,serif" font-size="14.00">name :string</text>
<text text-anchor="start" x="146.555" y="-284.3" font-family="Times,serif" font-size="14.00">description :text</text>
<text text-anchor="start" x="146.555" y="-270.3" font-family="Times,serif" font-size="14.00">star_rating :float</text>
<text text-anchor="start" x="146.555" y="-256.3" font-family="Times,serif" font-size="14.00">user_id :integer</text>
<text text-anchor="start" x="146.555" y="-242.3" font-family="Times,serif" font-size="14.00">order_id :integer</text>
<text text-anchor="start" x="146.555" y="-228.3" font-family="Times,serif" font-size="14.00">price :float</text>
<text text-anchor="start" x="146.555" y="-214.3" font-family="Times,serif" font-size="14.00">number_of_sales :integer</text>
<text text-anchor="start" x="146.555" y="-200.3" font-family="Times,serif" font-size="14.00">cover_picture :text</text>
<text text-anchor="start" x="146.555" y="-186.3" font-family="Times,serif" font-size="14.00">content :text</text>
<text text-anchor="start" x="146.555" y="-172.3" font-family="Times,serif" font-size="14.00">created_at :datetime</text>
<text text-anchor="start" x="146.555" y="-158.3" font-family="Times,serif" font-size="14.00">updated_at :datetime</text>
</g>
<!-- Category -->
<g id="node2" class="node"><title>Category</title>
<path fill="none" stroke="black" d="M163,-14.5C163,-14.5 272.011,-14.5 272.011,-14.5 278.011,-14.5 284.011,-20.5 284.011,-26.5 284.011,-26.5 284.011,-88.5 284.011,-88.5 284.011,-94.5 278.011,-100.5 272.011,-100.5 272.011,-100.5 163,-100.5 163,-100.5 157,-100.5 151,-94.5 151,-88.5 151,-88.5 151,-26.5 151,-26.5 151,-20.5 157,-14.5 163,-14.5"/>
<text text-anchor="middle" x="217.505" y="-85.3" font-family="Times,serif" font-size="14.00">Category</text>
<polyline fill="none" stroke="black" points="151,-78.5 284.011,-78.5 "/>
<text text-anchor="start" x="159" y="-63.3" font-family="Times,serif" font-size="14.00">id :integer</text>
<text text-anchor="start" x="159" y="-49.3" font-family="Times,serif" font-size="14.00">name :string</text>
<text text-anchor="start" x="159" y="-35.3" font-family="Times,serif" font-size="14.00">created_at :datetime</text>
<text text-anchor="start" x="159" y="-21.3" font-family="Times,serif" font-size="14.00">updated_at :datetime</text>
</g>
<!-- Book&#45;&gt;Category -->
<g id="edge3" class="edge"><title>Book&#45;&gt;Category</title>
<path fill="none" stroke="#fede57" d="M217.505,-141.413C217.505,-130.781 217.505,-120.361 217.505,-110.692"/>
<polygon fill="#fede57" stroke="#fede57" points="217.505,-141.482 213.005,-151.482 217.505,-146.482 217.505,-151.482 217.505,-151.482 217.505,-151.482 217.505,-146.482 222.005,-151.482 217.505,-141.482 217.505,-141.482"/>
<polygon fill="#fede57" stroke="#fede57" points="217.505,-110.521 222.005,-100.521 217.505,-105.521 217.505,-100.521 217.505,-100.521 217.505,-100.521 217.505,-105.521 213.005,-100.521 217.505,-110.521 217.505,-110.521"/>
</g>
<!-- Comment -->
<g id="node3" class="node"><title>Comment</title>
<path fill="none" stroke="black" d="M12,-0.5C12,-0.5 121.011,-0.5 121.011,-0.5 127.011,-0.5 133.011,-6.5 133.011,-12.5 133.011,-12.5 133.011,-102.5 133.011,-102.5 133.011,-108.5 127.011,-114.5 121.011,-114.5 121.011,-114.5 12,-114.5 12,-114.5 6,-114.5 0,-108.5 0,-102.5 0,-102.5 0,-12.5 0,-12.5 0,-6.5 6,-0.5 12,-0.5"/>
<text text-anchor="middle" x="66.5054" y="-99.3" font-family="Times,serif" font-size="14.00">Comment</text>
<polyline fill="none" stroke="black" points="0,-92.5 133.011,-92.5 "/>
<text text-anchor="start" x="8" y="-77.3" font-family="Times,serif" font-size="14.00">id :integer</text>
<text text-anchor="start" x="8" y="-63.3" font-family="Times,serif" font-size="14.00">content :text</text>
<text text-anchor="start" x="8" y="-49.3" font-family="Times,serif" font-size="14.00">user_id :integer</text>
<text text-anchor="start" x="8" y="-35.3" font-family="Times,serif" font-size="14.00">book_id :integer</text>
<text text-anchor="start" x="8" y="-21.3" font-family="Times,serif" font-size="14.00">created_at :datetime</text>
<text text-anchor="start" x="8" y="-7.3" font-family="Times,serif" font-size="14.00">updated_at :datetime</text>
</g>
<!-- Book&#45;&gt;Comment -->
<g id="edge1" class="edge"><title>Book&#45;&gt;Comment</title>
<path fill="none" stroke="#c42bea" d="M134.87,-144.974C128.944,-137.479 123.077,-130.058 117.417,-122.898"/>
<ellipse fill="none" stroke="#c42bea" cx="137.534" cy="-148.344" rx="4.00002" ry="4.00002"/>
<polygon fill="#c42bea" stroke="#c42bea" points="117.079,-122.47 114.407,-111.835 113.978,-118.548 110.877,-114.625 110.877,-114.625 110.877,-114.625 113.978,-118.548 107.347,-117.416 117.079,-122.47 117.079,-122.47"/>
</g>
<!-- Order -->
<g id="node4" class="node"><title>Order</title>
<path fill="none" stroke="black" d="M314,-14.5C314,-14.5 423.011,-14.5 423.011,-14.5 429.011,-14.5 435.011,-20.5 435.011,-26.5 435.011,-26.5 435.011,-88.5 435.011,-88.5 435.011,-94.5 429.011,-100.5 423.011,-100.5 423.011,-100.5 314,-100.5 314,-100.5 308,-100.5 302,-94.5 302,-88.5 302,-88.5 302,-26.5 302,-26.5 302,-20.5 308,-14.5 314,-14.5"/>
<text text-anchor="middle" x="368.505" y="-85.3" font-family="Times,serif" font-size="14.00">Order</text>
<polyline fill="none" stroke="black" points="302,-78.5 435.011,-78.5 "/>
<text text-anchor="start" x="310" y="-63.3" font-family="Times,serif" font-size="14.00">id :integer</text>
<text text-anchor="start" x="310" y="-49.3" font-family="Times,serif" font-size="14.00">user_id :integer</text>
<text text-anchor="start" x="310" y="-35.3" font-family="Times,serif" font-size="14.00">created_at :datetime</text>
<text text-anchor="start" x="310" y="-21.3" font-family="Times,serif" font-size="14.00">updated_at :datetime</text>
</g>
<!-- Book&#45;&gt;Order -->
<g id="edge2" class="edge"><title>Book&#45;&gt;Order</title>
<path fill="none" stroke="#28981b" d="M301.303,-143.504C310.885,-131.383 320.287,-119.491 328.881,-108.621"/>
<polygon fill="#28981b" stroke="#28981b" points="301.198,-143.638 291.466,-148.691 298.097,-147.56 294.996,-151.482 294.996,-151.482 294.996,-151.482 298.097,-147.56 298.526,-154.273 301.198,-143.638 301.198,-143.638"/>
<polygon fill="#28981b" stroke="#28981b" points="329.083,-108.366 338.815,-103.312 332.184,-104.443 335.285,-100.521 335.285,-100.521 335.285,-100.521 332.184,-104.443 331.754,-97.7302 329.083,-108.366 329.083,-108.366"/>
</g>
<!-- User -->
<g id="node5" class="node"><title>User</title>
<path fill="none" stroke="black" d="M127.228,-386.5C127.228,-386.5 307.783,-386.5 307.783,-386.5 313.783,-386.5 319.783,-392.5 319.783,-398.5 319.783,-398.5 319.783,-628.5 319.783,-628.5 319.783,-634.5 313.783,-640.5 307.783,-640.5 307.783,-640.5 127.228,-640.5 127.228,-640.5 121.228,-640.5 115.228,-634.5 115.228,-628.5 115.228,-628.5 115.228,-398.5 115.228,-398.5 115.228,-392.5 121.228,-386.5 127.228,-386.5"/>
<text text-anchor="middle" x="217.505" y="-625.3" font-family="Times,serif" font-size="14.00">User</text>
<polyline fill="none" stroke="black" points="115.228,-618.5 319.783,-618.5 "/>
<text text-anchor="start" x="123.228" y="-603.3" font-family="Times,serif" font-size="14.00">id :integer</text>
<text text-anchor="start" x="123.228" y="-589.3" font-family="Times,serif" font-size="14.00">email :string</text>
<text text-anchor="start" x="123.228" y="-575.3" font-family="Times,serif" font-size="14.00">encrypted_password :string</text>
<text text-anchor="start" x="123.228" y="-561.3" font-family="Times,serif" font-size="14.00">reset_password_token :string</text>
<text text-anchor="start" x="123.228" y="-547.3" font-family="Times,serif" font-size="14.00">reset_password_sent_at :datetime</text>
<text text-anchor="start" x="123.228" y="-533.3" font-family="Times,serif" font-size="14.00">remember_created_at :datetime</text>
<text text-anchor="start" x="123.228" y="-519.3" font-family="Times,serif" font-size="14.00">sign_in_count :integer</text>
<text text-anchor="start" x="123.228" y="-505.3" font-family="Times,serif" font-size="14.00">current_sign_in_at :datetime</text>
<text text-anchor="start" x="123.228" y="-491.3" font-family="Times,serif" font-size="14.00">last_sign_in_at :datetime</text>
<text text-anchor="start" x="123.228" y="-477.3" font-family="Times,serif" font-size="14.00">current_sign_in_ip :string</text>
<text text-anchor="start" x="123.228" y="-463.3" font-family="Times,serif" font-size="14.00">last_sign_in_ip :string</text>
<text text-anchor="start" x="123.228" y="-449.3" font-family="Times,serif" font-size="14.00">name :string</text>
<text text-anchor="start" x="123.228" y="-435.3" font-family="Times,serif" font-size="14.00">profile_picture :text</text>
<text text-anchor="start" x="123.228" y="-421.3" font-family="Times,serif" font-size="14.00">dob :date</text>
<text text-anchor="start" x="123.228" y="-407.3" font-family="Times,serif" font-size="14.00">created_at :datetime</text>
<text text-anchor="start" x="123.228" y="-393.3" font-family="Times,serif" font-size="14.00">updated_at :datetime</text>
</g>
<!-- User&#45;&gt;Book -->
<g id="edge4" class="edge"><title>User&#45;&gt;Book</title>
<path fill="none" stroke="#e710b1" d="M217.505,-378.176C217.505,-372.054 217.505,-365.943 217.505,-359.897"/>
<ellipse fill="none" stroke="#e710b1" cx="217.505" cy="-382.205" rx="4" ry="4"/>
<polygon fill="#e710b1" stroke="#e710b1" points="217.505,-359.794 222.005,-349.794 217.505,-354.794 217.505,-349.794 217.505,-349.794 217.505,-349.794 217.505,-354.794 213.005,-349.794 217.505,-359.794 217.505,-359.794"/>
</g>
<!-- User&#45;&gt;Comment -->
<g id="edge6" class="edge"><title>User&#45;&gt;Comment</title>
<path fill="none" stroke="#1fed26" d="M141.423,-378.983C137.087,-369.312 133.056,-359.59 129.505,-350 101.806,-275.183 84.627,-184.826 75.3393,-124.74"/>
<ellipse fill="none" stroke="#1fed26" cx="143.133" cy="-382.727" rx="4.00002" ry="4.00002"/>
<polygon fill="#1fed26" stroke="#1fed26" points="75.3048,-124.512 78.2553,-113.95 74.5555,-119.568 73.8061,-114.625 73.8061,-114.625 73.8061,-114.625 74.5555,-119.568 69.357,-115.299 75.3048,-124.512 75.3048,-124.512"/>
</g>
<!-- User&#45;&gt;Order -->
<g id="edge5" class="edge"><title>User&#45;&gt;Order</title>
<path fill="none" stroke="#4a90f5" d="M293.588,-378.983C297.924,-369.312 301.955,-359.59 305.505,-350 335.437,-269.154 353.084,-170.162 361.764,-110.828"/>
<ellipse fill="none" stroke="#4a90f5" cx="291.877" cy="-382.727" rx="4.00002" ry="4.00002"/>
<polygon fill="#4a90f5" stroke="#4a90f5" points="361.814,-110.481 367.686,-101.219 362.523,-105.531 363.232,-100.582 363.232,-100.582 363.232,-100.582 362.523,-105.531 358.777,-99.9436 361.814,-110.481 361.814,-110.481"/>
</g>
</g>
</svg>
